<?xml version="1.0" standalone="no"?>
<!DOCTYPE svg PUBLIC "-//W3C//DTD SVG 1.1//EN" "http://www.w3.org/Graphics/SVG/1.1/DTD/svg11.dtd" >
<svg xmlns="http://www.w3.org/2000/svg">
<metadata>Generated by IcoMoon</metadata>
<defs>
<font id="icomoon" horiz-adv-x="1024">
<font-face units-per-em="1024" ascent="896" descent="-128" />
<missing-glyph horiz-adv-x="1024" />
<glyph unicode="&#x20;" d="" />
<glyph unicode="&#xe900;" glyph-name="icon-star" d="M721.786 10.247c-1.448 0-2.907 0.045-4.38 0.135-11.918 0.732-22.619 4.283-28.854 7.447l-178.647 87.849-179.902-87.9c-13.761-6.889-49.327-13.998-72.546 6.815-19.673 15.111-29.602 40.422-25.373 65.165l0.127 0.692 36.841 189.358-141.484 130.757c-18.451 17.914-25.21 45.239-17.232 69.642 7.807 24.238 29.006 42.297 54.157 46.186l196.543 35.734 87.997 177.192c11.669 23.327 34.995 37.769 60.914 37.769 25.701 0 49.574-14.853 60.855-37.849l87.952-177.009 196.534-34.53c25.518-3.893 46.281-21.552 54.271-46.201 7.987-24.432 1.265-51.74-17.137-69.598l-0.442-0.421-141.19-131.661 35.818-189.966c4.289-24.627-5.622-49.952-25.328-65.191-10.368-9.383-24.178-14.414-39.495-14.414zM716.010 72.746c1.479-0.577 3.891-1.041 5.512-1.106l0.024 0.024 2.028 1.458c1.894 1.361 2.915 3.788 2.567 6.075l-41.95 222.467 165.599 154.423c1.589 1.637 2.143 4.106 1.408 6.341l-0.043 0.133c-0.775 2.395-2.762 4.1-5.185 4.451l-0.914 0.146-227.481 39.967-101.894 205.067c-1.037 2.123-3.287 3.496-5.734 3.496-2.518 0-4.803-1.441-5.964-3.76l-101.659-204.701-228.399-41.505c-2.396-0.347-4.419-2.056-5.153-4.353l-0.076-0.234c-0.723-2.2-0.14-4.672 1.484-6.362l165.673-153.1-43.282-222.47c-0.333-2.38 0.6-4.722 2.409-6.011l1.401-0.999c2.043-0.068 5.181 0.354 6.971 0.895l206.638 100.965 206.020-101.308z" />
<glyph unicode="&#xe901;" glyph-name="icon-time" d="M511.997 895.999c-282.694 0-511.874-229.181-511.874-511.874 0-282.695 229.18-511.873 511.874-511.873 282.681 0 511.887 229.178 511.887 511.873-0.104 282.693-229.206 511.874-511.887 511.874v0zM757.11 220.707c-12.263-18.484-32.543-28.535-53.241-28.535-12.185 0-24.55 3.487-35.458 10.726l-191.939 127.972c-17.808 11.936-28.455 31.866-28.455 53.254v319.923c0 35.355 28.624 63.98 63.98 63.98s63.992-28.624 63.992-63.98v-285.662l163.497-108.982c29.288-19.604 37.308-59.306 17.624-88.697v0z" />
<glyph unicode="&#xe902;" glyph-name="icon-house" d="M81.264 396.952c-32.91-33.692-21.34-61.005 25.888-61.005h72.528v-242.356l0.531-104.37c0-29.039 23.543-52.587 52.587-52.587h136.43c29.043 0 52.587 23.548 52.587 52.587v177.445c0 11.745 9.496 21.266 21.237 21.266h125.209c11.729 0 21.237-9.584 21.237-21.266v-177.445c0-29.039 23.543-52.587 52.587-52.587h136.43c29.043 0 52.587 23.548 52.587 52.587v104.37l0.526 242.356h72.53c47.209 0 58.769 27.345 25.891 61.005l-364.804 373.478c-32.91 33.692-86.298 33.659-119.176 0l-364.804-373.478z" />
<glyph unicode="&#xe903;" glyph-name="icon-setting" d="M960.915 512.655c-47.394 0.922-93.157 25.912-118.587 69.958-25.411 44.011-24.193 96.090-1.347 137.58-53.332 52.376-119.72 91.501-193.833 112.045-24.496-40.586-69.020-67.724-119.882-67.724s-95.386 27.138-119.882 67.724c-74.113-20.545-140.5-59.67-193.832-112.045 22.846-41.49 24.064-93.568-1.347-137.58-25.43-44.046-71.192-69.036-118.587-69.958-9.209-35.779-14.107-73.288-14.107-111.942s4.898-76.163 14.107-111.942c47.394-0.922 93.157-25.912 118.587-69.958 25.41-44.011 24.193-96.090 1.347-137.58 53.332-52.375 119.719-91.5 193.832-112.045 24.496 40.586 69.020 67.724 119.882 67.724s95.386-27.138 119.882-67.724c74.113 20.545 140.5 59.67 193.832 112.045-22.846 41.49-24.064 93.568 1.347 137.58 25.431 44.046 71.192 69.035 118.588 69.958 9.209 35.779 14.107 73.288 14.107 111.942s-4.898 76.163-14.107 111.942zM527.267 285.836c-63.445 0-114.877 51.432-114.877 114.877s51.432 114.877 114.877 114.877 114.877-51.432 114.877-114.877-51.432-114.877-114.877-114.877z" />
<glyph unicode="&#xe904;" glyph-name="icon-book" d="M0 0.479c0-35.748 28.738-64.479 64.187-64.479h319.625c36.163 0 84.771-19.901 110.161-44.45l-2.931 2.834c12.809-12.384 33.141-12.039 45.465 0.721l-4.768-4.937c24.704 25.581 72.998 45.831 108.448 45.831h319.625c36.163 0 64.187 28.868 64.187 64.479v831.042c0 35.748-28.738 64.479-64.187 64.479h-319.625c-36.163 0-84.169-20.824-108.817-46.512l5.39 5.617c-12.575-13.105-32.598-13.084-45.46-0.721l2.949-2.834c-25.179 24.2-74.987 44.45-110.436 44.45h-319.625c-36.163 0-64.187-28.868-64.187-64.479v-831.042zM64 704h352v-64h-352v64zM64 448h352v-64h-352v64zM64 192h352v-64h-352v64zM608 704h352v-64h-352v64zM608 448h352v-64h-352v64zM608 192h352v-64h-352v64z" />
<glyph unicode="&#xe905;" glyph-name="icon-qipao" d="M554.46 56.58c-7.235 0.009-14.109 1.543-20.321 4.297l0.321-0.127c-17.369 7.606-29.407 24.397-29.998 44.066l-0.002 0.074-1.46 47.11h-227.47c-63.081 0.068-114.2 51.181-114.28 114.253v330.887c0.068 63.088 51.192 114.212 114.274 114.28h472.946c63.088-0.068 114.212-51.192 114.28-114.274v-330.886c-0.080-63.079-51.199-114.192-114.274-114.26h-36.136c-0.022 0-0.049 0-0.076 0-20.661 0-39.523-7.703-53.871-20.395l0.086 0.075-71.24-62.68c-8.691-7.696-20.184-12.401-32.776-12.42h-0.004zM275.53 641.34c-24.4-0.040-44.17-19.81-44.21-44.206v-330.874c0.040-24.4 19.81-44.17 44.206-44.21h238.474c0.076 0 0.165 0.001 0.254 0.001 31.709 0 57.525-25.233 58.464-56.714l0.002-0.086 0.48-15.26 39 34.35c26.581 23.405 61.68 37.695 100.117 37.71h36.133c24.4 0.040 44.17 19.81 44.21 44.206v330.884c-0.040 24.4-19.81 44.17-44.206 44.21h-0.004zM289.71 437.41c0-23.351 18.929-42.28 42.28-42.28s42.28 18.929 42.28 42.28v0c0 23.351-18.929 42.28-42.28 42.28s-42.28-18.929-42.28-42.28v0zM469.72 437.41c0-23.351 18.929-42.28 42.28-42.28s42.28 18.929 42.28 42.28v0c0 23.351-18.929 42.28-42.28 42.28s-42.28-18.929-42.28-42.28v0zM649.73 437.41c0-23.351 18.929-42.28 42.28-42.28s42.28 18.929 42.28 42.28v0c0 23.351-18.929 42.28-42.28 42.28s-42.28-18.929-42.28-42.28v0z" />
<glyph unicode="&#xe906;" glyph-name="icon-photo" d="M936.6-99.1h-843v31.1c0 161.1 90.9 305.6 231.6 376.3-71.2 57-113.6 143.3-113.6 237 0 167.4 136.2 303.6 303.6 303.6s303.6-136.2 303.6-303.6c0-93.7-42.4-180-113.7-236.9 140.7-70.8 231.6-215.3 231.6-376.3l-0.1-31.2z" />
<glyph unicode="&#xe907;" glyph-name="icon-zhuanzai" d="M891.5 311.6c-19.6 0-35.5-15.9-35.5-35.6v-166c0-35.9-29.1-71.3-59.1-71.3h-567.4c-30.7 0-60.5 35.4-60.5 71.3v567.4c0 34 30.2 49.3 60.5 49.3h152.5c19.6 0 35.6 15.9 35.6 35.5s-15.9 35.5-35.6 35.5h-152.5c-76.5 0-132.5-50.6-132.5-120.3v-567.4c0-75.8 62.2-142.3 132.5-142.3h567.4c69.5 0 130.1 66.5 130.1 142.3v166c0 19.6-15.9 35.6-35.5 35.6zM891.9 797.7h-296.4c-19.6 0-35.6-15.9-35.6-35.5s15.9-35.5 35.6-35.5h206.5l-376.4-401.3c-13.5-14.3-12.7-36.8 1.6-50.3 6.9-6.4 15.6-9.6 24.3-9.6 9.5 0 18.9 3.8 25.9 11.2l378.6 403.6v-214.6c0-19.6 15.9-35.6 35.5-35.6s35.5 15.9 35.5 35.6v296.4c0 19.7-15.5 35.6-35.1 35.6z" />
<glyph unicode="&#xe908;" glyph-name="icon-fatie" d="M972.8 599.644v194.427c0 55.94-45.733 101.929-102.149 101.929h-717.303c-56.446 0-102.149-45.635-102.149-101.929v-820.143c0-55.94 45.733-101.929 102.149-101.929h717.303c56.446 0 102.149 45.635 102.149 101.929v296.382l-190.994-190.657-168.315 160.084 359.309 359.906zM741.609 39.527c-0.133 0.032-193.753-62.804-193.753-62.804-27.132-8.804-42.263 6.106-33.895 32.98l59.147 189.975c-1.116-1.18 168.501-160.151 168.501-160.151v0zM256 640c0 28.277 23.33 51.2 50.964 51.2h410.071c28.147 0 50.964-22.726 50.964-51.2 0-28.277-23.33-51.2-50.964-51.2h-410.071c-28.147 0-50.964 22.726-50.964 51.2v0zM256 384c0 28.277 22.718 51.2 51.19 51.2h153.62c28.272 0 51.19-22.726 51.19-51.2 0-28.277-22.718-51.2-51.19-51.2h-153.62c-28.272 0-51.19 22.726-51.19 51.2v0zM256 128c0 28.277 22.664 51.2 51.147 51.2h51.307c28.247 0 51.147-22.726 51.147-51.2 0-28.277-22.664-51.2-51.147-51.2h-51.307c-28.247 0-51.147 22.726-51.147 51.2v0z" />
<glyph unicode="&#xe909;" glyph-name="icon-yanjing" d="M512 896v0c-282.77 0-512-229.23-512-512v0c0-282.77 229.23-512 512-512s512 229.23 512 512c0 282.77-229.23 512-512 512zM106.667 383.232s359.851 470.592 810.133 17.067c0.747-69.419 0-68.267 0-68.267s-406.571-459.371-810.133-0.064v51.2zM503.296 485.739c0.463 0.006 1.010 0.009 1.557 0.009 70.775 0 128.149-57.374 128.149-128.149s-57.374-128.149-128.149-128.149c-70.772 0-128.144 57.369-128.149 128.139v0c-0.001 0.229-0.002 0.5-0.002 0.77 0 70.074 56.583 126.932 126.552 127.379h0.043z" />
<glyph unicode="&#xe90a;" glyph-name="ªÿ∏¥" d="M757.886 138.895c-35.878-0.139-188.891 0.18-229.136 0.18-161.534 0-261.528 110.649-261.528 245.781s109.766 244.658 245.168 244.658c135.408 0 245.175-109.526 245.175-244.657 0-46.129-17.094-99.966-42.765-140.839-37.792-66.554 40.879-55.032 43.086-105.123zM407.319 419.428c-19.332 0-35.023-15.692-35.023-35.026 0-19.371 15.691-35.027 35.023-35.027 19.334 0 35.026 15.656 35.026 35.027-0.001 19.334-15.693 35.026-35.026 35.026zM512.391 419.428c-19.333 0-35.024-15.692-35.024-35.026 0-19.371 15.692-35.027 35.024-35.027 19.336 0 35.027 15.656 35.027 35.027 0 19.334-15.69 35.026-35.027 35.026zM617.467 419.428c-19.334 0-35.024-15.692-35.024-35.026 0-19.371 15.691-35.027 35.024-35.027s35.023 15.656 35.023 35.027c-0.001 19.334-15.69 35.026-35.023 35.026z" />
<glyph unicode="&#xe90b;" horiz-adv-x="2970" d="M230.827 106.785c201.873 256.409 314.88 373.765 640.974 486.821 5.523 1.994 11.897 3.147 18.541 3.147 18.126 0 34.248-8.581 44.524-21.903l0.097-0.131 118.016-116.037c7.149-9.273 11.458-21.055 11.458-33.844 0-22.996-13.933-42.738-33.819-51.244l-0.363-0.138c-247.54-103.82-518.756-301.881-695.56-487.481-27.61-28.979-42.539 7.184-58.641 43.981l-52.557 119.922c-2.932 6.573-4.639 14.243-4.639 22.312 0 13.112 4.508 25.171 12.058 34.711l-0.089-0.117z" />
<glyph unicode="&#xe90c;" horiz-adv-x="2970" d="M141.399 581.902c303.835-107.118 526.477-254.503 741.715-521.199 7.89-9.602 12.673-22.017 12.673-35.55 0-14.776-5.702-28.22-15.026-38.251l0.032 0.035-91.016-97.271c-10.192-10.937-24.68-17.757-40.76-17.757-16.279 0-30.926 6.988-41.104 18.129l-0.039 0.043c-186.455 207.273-428.351 379.654-672.445 484.255-19.934 8.771-33.599 28.349-33.599 51.118 0 10.196 2.74 19.752 7.525 27.971l-0.143-0.266 64.677 103.868c9.895 16.929 27.981 28.122 48.682 28.122 6.751 0 13.223-1.19 19.22-3.372l-0.391 0.124z" />
<glyph unicode="&#xe90d;" horiz-adv-x="2970" d="M701.912-102.833c-181.080 269.090-295.113 593.744-317.641 937.309-0.080 1.127-0.126 2.441-0.126 3.766 0 30.824 24.816 55.852 55.559 56.194h0.032l163.707-12.217c29.076 0.195 54.146-0.953 57.126-29.883 29.516-285.29 127.032-565.742 268.553-798.964 4.945-8.198 7.87-18.098 7.87-28.681 0-18.643-9.078-35.167-23.056-45.39l-0.159-0.111-132.114-96.416c-9.129-6.675-20.577-10.681-32.961-10.681-19.439 0-36.573 9.87-46.664 24.872l-0.127 0.201z" />
<glyph unicode="&#xe90e;" horiz-adv-x="2970" d="M41.977 372.577c147.736-41.608 317.397-65.527 492.645-65.527 174.556 0 343.569 23.731 503.99 68.142l-13.244-3.128c24.196 6.625 41.683 28.416 41.683 54.291 0 6.273-1.028 12.307-2.925 17.941l0.116-0.396-53.486 160.653c-7.745 22.385-28.643 38.172-53.229 38.172-4.608 0-9.086-0.555-13.372-1.601l0.385 0.079c-126.514-30.307-271.767-47.685-421.078-47.685-144.232 0-284.677 16.217-419.611 46.926l12.625-2.417c-3.473 0.763-7.462 1.2-11.554 1.2-25.135 0-46.416-16.501-53.601-39.261l-0.108-0.398-48.672-156.181c-1.564-4.924-2.465-10.587-2.465-16.46 0-25.955 17.595-47.8 41.508-54.258l0.393-0.090z" />
<glyph unicode="&#xe90f;" horiz-adv-x="2970" d="M337.725-110.017c185.362 270.909 302.73 601.532 320.878 958.343l0.183 4.523c0.024 0.525 0.037 1.141 0.037 1.76 0 22.86-18.531 41.391-41.391 41.391-0.065 0-0.129 0-0.194 0h-197.905c-21.644-0.107-39.366-16.751-41.185-37.938l-0.011-0.154c-27.677-302.853-123.066-578.573-270.804-818.629l4.67 8.157c-3.853-6.183-6.138-13.69-6.138-21.731 0-13.769 6.699-25.973 17.016-33.531l0.117-0.082 156.23-112.2c6.736-4.909 15.178-7.855 24.307-7.855 14.119 0 26.593 7.044 34.098 17.81l0.089 0.135z" />
<glyph unicode="&#xe910;" horiz-adv-x="2970" d="M1151.936 291.383h35.527c6.167 0 11.166-4.999 11.166-11.166v0-384.394c0-6.167-4.999-11.166-11.166-11.166v0h-35.527c-6.167 0-11.166 4.999-11.166 11.166v384.37c0 0.007 0 0.016 0 0.024 0 6.167 4.999 11.166 11.166 11.166 0 0 0 0 0 0v0z" />
<glyph unicode="&#xe911;" horiz-adv-x="2970" d="M1563.183 291.383h-301.832c-6.167 0-11.166-4.999-11.166-11.166v0-35.527c0-6.167 4.999-11.166 11.166-11.166v0h110.808c6.167 0 11.166-4.999 11.166-11.166v0-332.521c0-6.167 4.999-11.166 11.166-11.166h35.527c6.167 0 11.166 4.999 11.166 11.166v0 332.496c0 6.167 4.999 11.166 11.166 11.166v0h110.808c0.015 0 0.032 0 0.049 0 6.167 0 11.166 4.999 11.166 11.166 0 0.009 0 0.017 0 0.026v-0.001 35.502c0 0.007 0 0.016 0 0.024 0 6.167-4.999 11.166-11.166 11.166-0.009 0-0.017 0-0.026 0h0.001z" />
<glyph unicode="&#xe912;" horiz-adv-x="2970" d="M1593.921-38.987l61.354 45.936c1.838 1.416 4.172 2.269 6.706 2.269 3.21 0 6.101-1.37 8.118-3.556l0.007-0.008c18.692-20.891 42.148-36.651 78.506-36.651 32.326 0 51.458 9.578 51.458 32.326 0 17.348-13.17 25.704-40.096 34.672l-47.842 16.175c-59.228 19.694-101.107 55.587-101.107 122.585 0 80.143 66.387 121.412 138.785 121.412 65.141 0 106.63-21.184 131.625-46.131 1.875-1.975 3.027-4.651 3.027-7.596 0-3.019-1.212-5.756-3.175-7.75l0.001 0.001-47.304-49.576c-2.012-2.148-4.865-3.486-8.031-3.486-2.677 0-5.131 0.957-7.038 2.547l0.018-0.014c-15.638 13.463-35.429 22.284-63.162 22.284-26.315 0-39.485-11.973-39.485-28.123 0-15.54 8.967-23.334 28.71-29.907l53.755-17.959c81.34-26.877 108.853-65.8 108.853-123.22 0-74.768-46.669-128.596-154.324-128.596-83.075 0-133.531 34.452-160.97 65.849-1.785 1.985-2.876 4.624-2.876 7.518 0 3.665 1.751 6.922 4.461 8.979l0.028 0.020z" />
<glyph unicode="&#xe913;" horiz-adv-x="2970" d="M2017.58 199.976h-85.323c-6.167 0-11.166 4.999-11.166 11.166v0 69.050c0 6.167 4.999 11.166 11.166 11.166h301.832c6.167 0 11.166-4.999 11.166-11.166v0-69.172c-0.069-6.114-5.042-11.044-11.166-11.044 0 0 0 0-0.001 0h-85.274c-6.167 0-11.166-4.999-11.166-11.166v0-292.987c0-6.167-4.999-11.166-11.166-11.166v0h-86.545c-6.167 0-11.166 4.999-11.166 11.166v0 292.865c0 0.036 0.001 0.079 0.001 0.122 0 6.167-4.999 11.166-11.166 11.166-0.009 0-0.018 0-0.026 0h0.001z" />
<glyph unicode="&#xe914;" horiz-adv-x="2970" d="M2463.059-66.353h-127.056c-0.006 0-0.013 0-0.020 0-4.624 0-8.592-2.811-10.288-6.817l-0.028-0.073-14.66-35.258c-1.723-4.080-5.691-6.89-10.315-6.89-0.007 0-0.014 0-0.021 0h-81.242c-0.008 0-0.018 0-0.027 0-6.167 0-11.166 4.999-11.166 11.166 0 1.759 0.407 3.424 1.132 4.904l-0.029-0.066 190.34 397.93c1.808 4.178 5.4 4.178 7.184 0l189.778-397.93c0.688-1.408 1.091-3.064 1.091-4.813 0-6.167-4.999-11.166-11.166-11.166-0.006 0-0.011 0-0.017 0h-87.35c-0.002 0-0.004 0-0.006 0-4.549 0-8.463 2.721-10.204 6.624l-0.028 0.071-15.662 35.673c-1.779 3.948-5.68 6.646-10.21 6.646-0.010 0-0.019 0-0.029 0h0.001zM2378.957 12.593h39.705c0.003 0 0.006 0 0.009 0 6.167 0 11.166 4.999 11.166 11.166 0 1.599-0.336 3.119-0.941 4.494l0.028-0.072-20.011 46.424c-1.746 4.027-5.687 6.793-10.274 6.793s-8.528-2.766-10.247-6.721l-0.028-0.072-19.694-46.424c-0.564-1.29-0.892-2.794-0.892-4.374 0-6.167 4.999-11.166 11.166-11.166 0.004 0 0.009 0 0.013 0h-0.001z" />
<glyph unicode="&#xe915;" horiz-adv-x="2970" d="M2739.87-115.368h-86.52c-6.167 0-11.166 4.999-11.166 11.166v0 384.394c0 6.167 4.999 11.166 11.166 11.166v0h153.323c103.478 0 160.897-61.085 160.897-144.16 0-49.772-21.991-89.843-63.528-113.080-3.629-1.926-6.058-5.681-6.058-10.004 0-2.044 0.543-3.962 1.494-5.616l-0.029 0.055 68.415-117.136c0.971-1.622 1.546-3.578 1.546-5.669 0-6.167-4.999-11.166-11.166-11.166-0.011 0-0.022 0-0.033 0h-91.821c-0.012 0-0.026 0-0.041 0-4.156 0-7.781 2.27-9.704 5.638l-0.029 0.055-65.385 116.037c-1.952 3.423-5.577 5.693-9.733 5.693-0.014 0-0.029 0-0.043 0h-19.35c-6.167 0-11.166-4.999-11.166-11.166v0-105.066c-0.014-6.122-4.952-11.087-11.063-11.142h-0.005zM2801.297 95.179c37.091 0 56.809 18.521 56.809 52.044s-19.718 52.044-56.809 52.044h-39.094c-6.167 0-11.166-4.999-11.166-11.166v0-81.731c0-6.167 4.999-11.166 11.166-11.166v0z" />
<glyph unicode="&#xe916;" glyph-name="Œ““™∑¢Ã˚" horiz-adv-x="1074" d="M888.453 760.508c-82.744 82.796-144.884 70.402-144.884 70.402l-621.182-621.184-57.952-273.294 273.295 57.953 621.125 621.125c0 0.004 12.45 62.143-70.403 144.997v0zM321.435 27.266l-93.126-20.080c-9.011 16.81-19.855 33.623-39.652 53.475-19.793 19.854-36.665 30.583-53.475 39.593l20.138 93.178 26.91 26.915c0 0 50.721-1.037 107.932-58.239 57.262-57.267 58.293-107.988 58.293-107.988l-27.019-26.853z" />
<glyph unicode="&#xe917;" glyph-name="œ˚œ¢-(1)" d="M512-19.968c59.904 0 107.52 48.128 107.52 108.032h-215.040c0-59.904 48.128-108.032 107.52-108.032zM582.656 704.512c99.328-34.816 180.736-140.8 180.736-266.24v-98.816s0-142.336 34.816-143.872h1.024c19.968 0 35.84-15.872 35.84-35.84s-15.872-35.84-35.84-35.84h-574.464c-19.968 0-35.84 15.872-35.84 35.84s15.872 35.84 36.864 35.84c34.816 1.024 34.816 143.872 34.816 143.872v98.816c0 125.44 81.408 231.936 180.736 266.24-1.024 3.584-1.024 7.68-1.024 11.776 0 39.424 32.256 71.68 71.68 71.68s71.68-32.256 71.68-71.68c0-4.096 0-8.192-1.024-11.776z" />
<glyph unicode="&#xe918;" glyph-name="icon-email" d="M829.217 729.043h-634.435c-41.717 0-105.739-34.104-105.739-75.487v-14.959s357.487-300.121 422.957-300.121c65.469 0 422.957 299.164 422.957 299.164v15.917c0 41.383-64.022 75.487-105.739 75.487zM89.043 517.521v-425.472s39.246-53.092 105.739-53.092h634.435c63.199 0 105.739 53.092 105.739 53.092v426.808s-300.833-269.601-422.957-269.601c-120.832 0-422.957 268.266-422.957 268.266z" />
<glyph unicode="&#xe919;" glyph-name="icon-wexin" horiz-adv-x="1025" d="M494.779 471.358c15.864 0 28.69 12.459 28.69 27.804 0 15.36-12.826 27.799-28.69 27.799s-28.702-12.439-28.702-27.799c0.001-15.345 12.838-27.804 28.702-27.804zM352.482 526.962c-15.851 0-28.689-12.439-28.689-27.799 0-15.344 12.838-27.804 28.689-27.804 15.877 0 28.731 12.459 28.731 27.804 0 15.36-12.853 27.799-28.731 27.799zM558.552 382.708c-13.402 0-24.256-10.499-24.256-23.46 0-12.977 10.854-23.503 24.256-23.503 13.4 0 24.268 10.526 24.268 23.503 0 12.961-10.869 23.46-24.268 23.46zM678.728 382.708c-13.386 0-24.24-10.499-24.24-23.46 0-12.977 10.854-23.503 24.24-23.503 13.428 0 24.269 10.526 24.269 23.503 0 12.961-10.841 23.46-24.269 23.46zM505.278 879.536c-278.224 0-503.768-225.545-503.768-503.767 0-278.224 225.545-503.768 503.768-503.768s503.768 225.545 503.768 503.768c0 278.223-225.546 503.767-503.768 503.767zM423.63 269.29c-22.612 0-44.362 3.067-64.687 8.719-1.163 0.329-3.478 1.006-3.478 1.006l-73.913-37.648 19.765 61.882c0 0-1.246 0.78-1.889 1.184-48.797 31.236-80.238 80.463-80.238 135.837 0 94.441 91.516 170.99 204.44 170.99 102.274 0 187.015-62.807 202.086-144.837-2.861 0.14-5.707 0.198-8.61 0.198-102.823 0-186.22-69.899-186.22-156.118 0-14.113 2.299-27.785 6.489-40.791-4.559-0.252-9.118-0.423-13.744-0.423zM723.569 194.733c-0.52-0.329-1.587-0.999-1.587-0.999l16.672-52.287-62.402 31.823c0 0-1.958-0.588-2.943-0.848-17.166-4.791-35.548-7.391-54.628-7.391-95.416 0-172.766 64.681-172.766 144.466 0 79.779 77.35 144.44 172.766 144.44 95.363 0 172.686-64.661 172.686-144.44-0.001-46.792-26.597-88.375-67.798-114.765z" />
<glyph unicode="&#xe91a;" glyph-name="icon-weibo" d="M471.184 387.385c-88.842-4.102-160.688-51.7-160.688-111.077 0-59.306 71.845-103.859 160.688-99.707 88.939 4.038 160.913 59.697 160.913 118.991-0.001 59.242-71.974 95.88-160.913 91.793zM531.741 238.050c-27.214-35.129-81.056-52.285-133.359-23.968-24.877 13.509-23.954 40.024-23.954 40.024s-10.349 83.719 79.044 94.164c89.492 10.396 105.481-75.091 78.269-110.219zM429.439 282.602c-16.704-1.738-28.64-16.3-28.64-30.198 0-13.964 13.428-23.58 30.132-21.62 16.606 1.885 30.133 14.726 30.133 28.643 0 13.946-12.455 25.007-31.625 23.175zM471.783 294.101c-5.725-4.153-6.894-12.067-3.779-17.010 2.985-5.081 9.958-5.664 15.6-1.432 5.516 4.366 7.657 11.955 4.673 17.017-2.985 4.945-9.86 6.356-16.495 1.425zM512 830.897c-246.814 0-446.897-200.083-446.897-446.897s200.083-446.897 446.897-446.897 446.897 200.083 446.897 446.897-200.083 446.897-446.897 446.897zM711.529 256.247c-36.65-77.814-157.442-115.699-246.964-108.676-85.079 6.699-194.469 34.95-205.773 137.901 0 0-5.967 46.642 39.248 106.974 0 0 65 90.804 140.738 116.72 75.802 25.77 84.625-17.858 84.625-43.643-4.020-21.896-11.547-34.757 16.899-25.915 0 0 74.505 34.543 105.158 3.891 24.75-24.747 4.087-58.789 4.087-58.789s-10.249-11.368 10.869-15.456c21.176-4.216 87.734-35.063 51.112-113.007zM638.066 471.234c-8.111 0-14.631 6.551-14.631 14.613 0 8.188 6.521 14.74 14.631 14.74 0 0 91.32 16.902 80.406-81.251 0-0.583-0.064-1.039-0.194-1.557-1.039-6.94-7.153-12.277-14.353-12.277-8.123 0-14.743 6.503-14.743 14.612 0 0 14.468 65.6-51.116 51.12zM792.459 392.737h-0.131c-2.401-16.605-10.654-17.938-20.467-17.938-11.741 0-21.244 7.397-21.244 19.139 0 10.184 4.214 20.53 4.214 20.53 1.252 4.283 11.192 30.946-6.551 70.743-32.47 54.556-97.889 55.367-105.611 52.251-7.783-3.047-19.295-4.604-19.295-4.604-11.81 0-21.295 9.633-21.295 21.311 0 9.826 6.57 18.132 15.52 20.66 0 0 0.191 0.324 0.519 0.39 0.648 0.13 1.299 0.796 2.012 0.861 9.097 1.735 41.581 8.123 73.142 0.729 56.504-13.2 134.058-67.821 99.188-184.071z" />
<glyph unicode="&#xe91b;" glyph-name="icon-qq" d="M511.994 807.258c-233.755 0-423.252-189.504-423.252-423.263 0-233.762 189.498-423.253 423.252-423.253 233.76 0 423.265 189.491 423.265 423.253 0 233.759-189.505 423.263-423.265 423.263zM692.548 269.783c-13.418-11.51-30.876 37.941-33.386 30.331-6.109-18.494-9.001-30.877-27.003-51.007-0.956-1.091 20.837-8.975 27.003-25.776 5.892-16.094 17.404-41.597-57.825-49.616-44.161-4.69-76.048 23.54-79.211 23.242-5.919-0.518-3.3 0-9.601 0-5.209 0-5.536-0.355-10.418 0-1.337 0.134-16.012-23.242-81.639-23.242-50.844 0-63.99 32.023-53.762 49.616 10.228 17.62 27.277 22.722 24.877 25.531-11.838 13.721-20.022 28.396-24.903 41.652-3.596 9.635-5.99 20.78-6.676 32.383 1.822-15.691-12.336-64.352-27.529-53.114-15.194 11.239-13.829 39.851-4.010 67.21 9.929 27.603 34.941 54.17 35.213 60.062 0.983 21.822-2.155 25.449 0 31.178 4.801 12.847 10.639 7.909 10.639 14.565 0 83.93 62.325 152.012 139.3 152.012s139.381-68.083 139.381-152.012c0-3.219 8.348 0 12.357-14.565 0.819-3.027 1.392-14.622 0.409-31.178-0.464-7.966 21.194-17.648 32.377-60.062 11.211-42.386 0-62.41-5.593-67.21z" />
</font>
</defs>
</svg>
